<svg id="Warstwa_1" data-name="Warstwa 1" xmlns="http://www.w3.org/2000/svg" viewBox="0 0 282.28 117.13"><defs><style>.cls-1{font-size:36px;font-family:blzee, blzee;}.cls-2{fill:none;stroke-width:1.5px;}.cls-2,.cls-3,.cls-4{stroke:#000;stroke-miterlimit:10;}.cls-3{stroke-width:2px;}.cls-4{stroke-width:3px;}.cls-5{fill:#202020;}</style></defs><title>logo_smaczewngo</title><text x="-20.72" y="-105.87"></text><text class="cls-1" transform="matrix(0.95, -0.31, 0.31, 0.95, 37.1, 73.03)">S</text><text class="cls-1" transform="translate(57.84 66.36) rotate(-13.81)">m</text><text class="cls-1" transform="matrix(0.98, -0.18, 0.18, 0.98, 81.21, 60.67)">a</text><text class="cls-1" transform="matrix(0.99, -0.14, 0.14, 0.99, 101.15, 56.98)">c</text><text class="cls-1" transform="matrix(0.99, -0.1, 0.1, 0.99, 119.5, 54.39)">z</text><text class="cls-1" transform="matrix(1, -0.06, 0.06, 1, 139.05, 52.44)">n</text><text class="cls-1" transform="translate(157.97 51.26) rotate(-1.88)">e</text><text class="cls-1" transform="translate(173.94 50.74) rotate(-0.41)">g</text><text class="cls-1" transform="matrix(1, 0.02, -0.02, 1, 189.16, 50.58)">o</text><text class="cls-1" transform="translate(211.14 51.13) rotate(2.52)">.</text><text class="cls-1" transform="translate(220.32 51.5) rotate(3.48)">p</text><text class="cls-1" transform="translate(235.66 52.47) rotate(4.35)">l</text><path d="M63,189" transform="translate(-20.72 -105.87)"/><path class="cls-2" d="M227.42,124.6" transform="translate(-20.72 -105.87)"/><path class="cls-3" d="M206.37,124.73a.36.36,0,0,0,0-.51,3.48,3.48,0,0,1-.43-2.3,5.3,5.3,0,0,1,.14-1,7.49,7.49,0,0,1,1.87-3.63,12.11,12.11,0,0,1,8.27-3.9,5.74,5.74,0,0,1,4.35,1.31c.22.19.41.55.62.57s.51-.28.78-.42a9.84,9.84,0,0,1,6.47-.79,7.67,7.67,0,0,1,3.93,1.79,3.38,3.38,0,0,0,2,.9,10.68,10.68,0,0,1,8.57,5.61,7.5,7.5,0,0,1,.8,6.16,12,12,0,0,1-3.49,5.11c-1.21,1.07-2.54,1.8-4.27,1.12.11.34.19.64.29.92.33.89.67,1.77,1,2.66a2.19,2.19,0,0,1-.81,2.57c-.16.13-.33.31-.53.07s0-.32.18-.45,0-.09,0-.14a.91.91,0,0,0-.1-1,2.93,2.93,0,0,1-.31-.58c-.06-.16-.2-.24-.32-.35a12,12,0,0,0-3.58-2.21,18.2,18.2,0,0,0-8-1.92,17.93,17.93,0,0,0-10.43,3.52c-.34.24-.67.5-1,.73-.12.08-.27.28-.4.1s.11-.23.2-.32l.89-.79c.28-.25.53-.58.83-.81a13.92,13.92,0,0,1,1.92-1.18A18.8,18.8,0,0,1,220.1,134h.05a15.37,15.37,0,0,1,6.44-.15,20.46,20.46,0,0,1,7.83,3.19,6.53,6.53,0,0,1,2.13,2.21,4.28,4.28,0,0,1,0-.88.58.58,0,0,0,0-.23,19.09,19.09,0,0,1-1.74-5.82,2.29,2.29,0,0,1-.19-1.12,12.87,12.87,0,0,1,.27-2.39c0-.17.2-.45,0-.51a9,9,0,0,1-2.05-.63,6.7,6.7,0,0,1-1.18-.78c-.32-.27-.74-.59-.69-1a.17.17,0,0,1,.18-.12,1,1,0,0,1,.44.35,4,4,0,0,0,2,1.18,10.26,10.26,0,0,0,1.65.24,5.25,5.25,0,0,0,2.25-.33,2,2,0,0,1,.69-.21c.11,0,.24,0,.28.13s-.07.17-.14.23a4.39,4.39,0,0,1-.68.44,2,2,0,0,1-.64.22c-.89,0-1.13.63-1.22,1.37,0,.11,0,.22,0,.33a12,12,0,0,0,.16,3.73.61.61,0,0,0,.42.48,2.62,2.62,0,0,0,2.81-.35,9.75,9.75,0,0,0,3-3.36,1.06,1.06,0,0,0,.11-.21c1.73-3.21,1-6.29-1.05-8.93a9.82,9.82,0,0,0-6-3.54,6.43,6.43,0,0,0-1.22-.24,5.18,5.18,0,0,1,.65,1.45c0,.16.13.37-.1.46s-.31-.1-.4-.25a8.32,8.32,0,0,0-.8-1.14,10.14,10.14,0,0,0-3.54-2.45,9,9,0,0,0-7-.15,5.38,5.38,0,0,0-2.21,1.41c-.1.11-.23.3-.39.16s0-.29.05-.44a.35.35,0,0,1,.05-.08c.32-.55.3-.62-.23-1a5.81,5.81,0,0,0-3.66-1,11.4,11.4,0,0,0-7.06,2.81,7.1,7.1,0,0,0-2.44,3.82,3.24,3.24,0,0,0-.22,1.51,4.41,4.41,0,0,0,.11,1.14,4.84,4.84,0,0,0,.69,1.45c.17.26.49.47.4.86-.27.07-.42-.12-.57-.28s-.32-.17-.46,0a2.52,2.52,0,0,0-.45,1.68,4.58,4.58,0,0,0,2.52,3.43,3.81,3.81,0,0,0,3.19.42c.78-.24.78-.24.85-1.06.19-.61.17-1.26.31-1.88a6.55,6.55,0,0,0,.18-1.33c.06-.32-.07-.47-.4-.5a1.7,1.7,0,0,1-1-.29c-.08-.16.05-.18.14-.22.54,0,1.09.06,1.63,0a7,7,0,0,0,4.43-1.55c.38-.33.66-.62.49-1.15a.18.18,0,0,1,.18-.11c.39.16.59.67.9.94a6.68,6.68,0,0,0,1.45.88,8.08,8.08,0,0,0,3.34.8,8.21,8.21,0,0,0,5-1.57.86.86,0,0,1,.39-.2c.15,0,.32.08.32.23a.41.41,0,0,1-.16.27,7.71,7.71,0,0,1-5.63,2.16,11,11,0,0,1-4-1.31c-.23-.1-.73-.21-.88-.41a2,2,0,0,0-.24-.35c-.28-.24-1.07.65-1.33.82a6.1,6.1,0,0,1-1.16.61,8,8,0,0,1-1.28.31c-.35.06-.71.1-1,.18s-.32.35-.33.58a10.13,10.13,0,0,1-.46,2.38c-.26,1.34-.55,2.67-.78,4a7.19,7.19,0,0,1-1.48,4,1,1,0,0,0,0,1.13,3.41,3.41,0,0,1,.52,1.17.68.68,0,0,1-.54-.14c-1-.85-1.33-1.62-.42-2.73,1.11-1.33,1.15-3,1.49-4.52a.32.32,0,0,0-.16,0,2,2,0,0,0-.23.06,4.07,4.07,0,0,1-2.56-.11c-2.25-.88-3.89-2.32-4.22-4.88l.1-1.05A3,3,0,0,1,206.37,124.73Z" transform="translate(-20.72 -105.87)"/><path class="cls-4" d="M413.5,149.5" transform="translate(-20.72 -105.87)"/><path d="M187,162" transform="translate(-20.72 -105.87)"/><path d="M159,162" transform="translate(-20.72 -105.87)"/><path class="cls-5" d="M186.06,157.49c.05-.1,0-.29-.18-.23l-.08.35Z" transform="translate(-20.72 -105.87)"/><path class="cls-5" d="M184.83,157a.65.65,0,0,0-.22.78c.16-.34.23-.22.4-.62a.21.21,0,0,1,.3.19c.05-.09.27,0,.34-.17a.55.55,0,0,0-.81,0C184.77,157.18,184.82,157.08,184.83,157Z" transform="translate(-20.72 -105.87)"/><path class="cls-5" d="M167.94,158.68l.11,0A.2.2,0,0,0,167.94,158.68Z" transform="translate(-20.72 -105.87)"/><path class="cls-5" d="M157.51,160c.08,0,.1-.06.1-.09S157.49,160,157.51,160Z" transform="translate(-20.72 -105.87)"/><path class="cls-5" d="M155.68,159.88h.11S155.7,159.85,155.68,159.88Z" transform="translate(-20.72 -105.87)"/><path class="cls-5" d="M167.94,158.68l-.29-.06C167.64,158.73,167.8,158.68,167.94,158.68Z" transform="translate(-20.72 -105.87)"/><path class="cls-5" d="M182.6,158.1a.38.38,0,0,0,.14-.11l-.13,0Z" transform="translate(-20.72 -105.87)"/><path class="cls-5" d="M172.5,157.8l.08,0a.58.58,0,0,0,0-.14Z" transform="translate(-20.72 -105.87)"/><path class="cls-5" d="M176,157.28c-.08,0-.08.28-.09.41a.27.27,0,0,1,.15-.21A1.08,1.08,0,0,0,176,157.28Z" transform="translate(-20.72 -105.87)"/><path class="cls-5" d="M181.67,157.06l.1-.05Z" transform="translate(-20.72 -105.87)"/><path class="cls-5" d="M170,158.07a.36.36,0,0,0-.05-.09A.14.14,0,0,0,170,158.07Z" transform="translate(-20.72 -105.87)"/><path class="cls-5" d="M75.46,183.63l0,0S75.44,183.64,75.46,183.63Z" transform="translate(-20.72 -105.87)"/><path class="cls-5" d="M72,186l0-.06-.14-.08Z" transform="translate(-20.72 -105.87)"/><path class="cls-5" d="M152.38,160h0C152.47,160,152.42,160,152.38,160Z" transform="translate(-20.72 -105.87)"/><path class="cls-5" d="M122.64,165.16c.38.18-.49.42.07.6C122.64,165.66,123.09,165.24,122.64,165.16Z" transform="translate(-20.72 -105.87)"/><path class="cls-5" d="M182.51,158.07l-.15,0A.32.32,0,0,0,182.51,158.07Z" transform="translate(-20.72 -105.87)"/><path class="cls-5" d="M122.71,165.76Z" transform="translate(-20.72 -105.87)"/><path class="cls-5" d="M144.92,161.33a.33.33,0,0,0,.09.11S145,161.38,144.92,161.33Z" transform="translate(-20.72 -105.87)"/><path class="cls-5" d="M150.55,160.86l-.14,0A.39.39,0,0,0,150.55,160.86Z" transform="translate(-20.72 -105.87)"/><path class="cls-5" d="M142.09,162.19c-.08,0-.11-.05-.21,0l0,0S142,162.16,142.09,162.19Z" transform="translate(-20.72 -105.87)"/><path class="cls-5" d="M139.08,162.68l.06,0,.1,0Z" transform="translate(-20.72 -105.87)"/><path class="cls-5" d="M82.61,178.61a.81.81,0,0,1-.23-.17C82.5,178.6,82.14,178.85,82.61,178.61Z" transform="translate(-20.72 -105.87)"/><path class="cls-5" d="M182.58,157.94c0,.07,0,.11-.07.13l.1,0S182.61,158,182.58,157.94Z" transform="translate(-20.72 -105.87)"/><path class="cls-5" d="M142.32,164.4l-.49,0A2.86,2.86,0,0,0,142.32,164.4Z" transform="translate(-20.72 -105.87)"/><path class="cls-5" d="M103.11,171.79l-.1.06A.1.1,0,0,0,103.11,171.79Z" transform="translate(-20.72 -105.87)"/><path class="cls-5" d="M140.43,164.7a.84.84,0,0,0-.3-.15.35.35,0,0,0,0,.08Z" transform="translate(-20.72 -105.87)"/><path class="cls-5" d="M82.37,178.44h0Z" transform="translate(-20.72 -105.87)"/><path class="cls-5" d="M80,180.46c.37-.22,0-.42,0-.65.41-.36.35.12.6.19.24-.24.3-.66.53-.77,0,.05.09.05.08.14.18-.42.92-.49,1.14-1a.1.1,0,0,1,.08.06,1.16,1.16,0,0,1-.27-.43c.18-.1.24-.38.42-.19-.12.05-.09.14-.11.23l.15-.18c.32.23-.21.23-.1.46.32-.27.64-.74,1-.78.2.29-.64.41-.13.51l-.49.09c.56.33-.29.09.26.47.62-.18.59-.45,1.21-.62.06-.23-.15-.24-.09-.47.72-.66,1,.52,1.44-.15.08-.27,0-.7.53-.66l0,.42c.6-.19.14-.65.85-.63-.06.18-.42.29-.32.3.51.13.21-.31.52-.43l.18.3c.61-.28,1.24-.75,1.92-1.06,0,.11-.09.26.11.3a7.2,7.2,0,0,1,2.84-.7l.24-.39c.08,0,.19.08.12.16.37,0,0-.18.09-.34s.3.08.21.2a3.56,3.56,0,0,1,2.26-.94l-.1.12c.53,0,.38-.74.92-.62l-.08.07c1.11-.19,2.22-.79,3.16-.6,0-.45,1.11-.11,1-.7.7.12.55.27,1.46.22.24,0,.25-.45.52-.59l.09.3.3-.41.31.3.24-.15c-.11,0-.26-.07-.26-.16a1.06,1.06,0,0,1,1.12.09l.93-.51c0,.13-.15.21-.26.32.46-.44.18.29.59-.11-.08,0,0-.18,0-.25a1.88,1.88,0,0,0,1.23-.19l0,.23c.76-.13,1.54-.48,2.37-.67a.25.25,0,0,1-.1-.49l.17.29c.11-.23-.28-.06,0-.37.32,0,.29.31.14.45l.35-.19c0,.09,0,.16,0,.28.11-.23.73.17.87-.22l0,.08c.84-.19,1.19-.37,1.87-.54,0-.28.23-.28.38-.54a8.52,8.52,0,0,0,1.72-.08c.4-.23.08-.26.23-.46.09.24.68.09.41.33a8.82,8.82,0,0,0,1.79-.63c-.12-.09-.24-.11-.2-.21s.4,0,.4.16l0,0c1-.58,2.53.25,3.24-.43l0,0,.8-.44c.4,0-.2.24.12.34.84-.6,1.47-.23,2.18-.64.72.63,2.07-.45,3-.11l-.08-.17c.18-.21.27.06.43.07,0-.13-.25-.12-.14-.24a26.35,26.35,0,0,1,5.44-.53c.66-.06.22-1,1.11-.69l-.17.37c1.25-.62,2.69-.45,3.93-1-.06.09,0,.18-.18.2.32.2,1-.15,1-.35.2,0,.07.17.21.25.3.09.64-.42.82-.21,0,0-.06.09-.11.12.16-.14.84-.11.62-.35.51.05.91-.28,1.33-.18.2-.34.85,0,.86-.43,0,.45.91.22,1.18,0-.08.15.29.1.2.31.35-.07.66-.2.56-.42.73.43,1.23-.64,1.7,0a26.13,26.13,0,0,1,2.86-1c0,.45-1,.21-.91.67.86-.33,1.31-.79,2.21-.82.24,0-.1.22-.17.3.86-.32,1.73-.22,2.48-.58,0,0-.08.1-.15.14.15,0,.37,0,.32-.19l-.14.08c-.29-.26.52-.71.53-.87-.18.62.8,0,.49.83.1-.06.21-.17.17-.3.16,0,.22.08.09.26.54-.19.31-.38.81-.45,0,.1-.08.15-.11.28a1.06,1.06,0,0,1,.89-.45c0,.07.05.14-.08.15.73-.14,1.17-.69,2-.63-.18.46.29.1.39.47l.41-.18-.2-.15c.38-.05.68-.37,1-.3l-.25.2.7-.18-.43-.08c.36-.25-.11-.46.41-.43-.09.05.38,0,.61.14h0a.73.73,0,0,1,.64-.25c.09.11,0,.42.06.49.14-.34.88-.22,1.07-.58a.37.37,0,0,0,0,.32l.12-.27c.19,0,.22.09.22.25.53,0-.24-.45.42-.34,0,0,0,.07-.12.12.65,0,1.2-.33,1.8-.29.22.34-.5.16-.26.45a14.86,14.86,0,0,1,2.49-.72l-.15,0c0-.54.63.17,1-.13-.1,0-.09.31-.07.25a6.86,6.86,0,0,0,1.93-.57l-.09.15a8.46,8.46,0,0,0,1.23,0c.09-.15.3-.16.15-.34,1.19.62,2-.69,3.07-.18-.12,0-.26.15-.17.14l.81-.23c-.1-.22-.13-.13-.33-.28a.74.74,0,0,1,.51-.31c-.35.2.05.36.23.47,0-.07,0-.15,0-.22.48.35,0-.47.63-.27v.12c.21-.09.39-.28.63-.27.13.25-.22.15-.2.37.33-.06.59-.59.92-.36-.13.09-.33.12-.46.21a.72.72,0,0,0,.64.2h0l.58.07-.15-.07c.32-.75.83-.24,1.33-.76-.49.5-.06.26-.06.56.15.07.38.14.33.23.23-.28.47.13.8-.27,0,.09.28,0,.25.22.34-.12-.1-.15-.09-.28.49-.4,1.3.24,2-.31.64-.27.72-.61,1.31-.85.23.13-.13.38-.13.38a1.13,1.13,0,0,0,.9-.11c-.05.09,0,.16.13.25s.13-.37.48-.27a1.38,1.38,0,0,1-.21.42c.29-.13.56-.34.86-.47.1.16-.16.28-.25.41.34-.12.88-.27,1-.55l-.23-.06c.12,0,.09.22,0,.28a.26.26,0,0,1-.46-.14l.21-.09c-.3-.54-.87.2-1.32.22l.14-.43-.41.4c-.11-.1-.21-.32,0-.41-.34-.17-.26.18-.56,0a.05.05,0,0,1,0-.08l-.29.17c.05-.1-.09-.29.11-.25-.59-.17-.86.42-1.1.13l0,0c-.75.24,0,.31-.57.74l-.48-.7,0,.31c-.08,0-.24,0-.23-.12-.27.24.07.12-.08.34-.41-.23-1,.26-1.18-.21-.11.25.39.13,0,.34-.18-.5-.46.15-.84,0,.07-.28.42-.18,0-.38-.15.48-.69,0-1,.12,0,.36-.62.23-1.1.41,0-.12-.95-.07-1.43-.14v-.07c0,.38-.52.37-.85.49a.39.39,0,0,1,.21-.43l-.33,0a.52.52,0,0,1-.36.28l.05-.29c-.43.08-.83.44-1.41.33,0,.26.54.65,0,.9,0-.14-.09-.37.06-.45,0,0-.17.14-.28.1l.21-.26c-.27-.07-.11.21-.31.21,0-.19-.17-.12-.16-.28s.18.06.25,0a.89.89,0,0,1-.63-.22c0,.11,0,.27-.13.31-.43.08-.18-.21-.45-.28-.08.15-.38.05-.34.34-.13,0-.17-.11-.23-.19-.21.16-1,.18-.75.46h.06l0,0h0c-.69.39-1.54,0-2.25.27v-.1c-.42.17-1,.2-1.24.45-.13,0-.33-.13-.29-.26-.32.12-.34.24-.84.14.31-.21-.14-.13.32-.17-.44,0-.56-.17-1,.17.12-.28-.37-.27-.56-.17l.32.14a2.37,2.37,0,0,1-.63.08L162,159c-.94-.28-1.49.91-2.26.33-.2.27.5.09.34.39-.42,0-.91-.39-1-.38-.58-.1-.45.56-1.05.52.09.11.21.41-.21.58s-.57-.42-.33-.55.15,0,.15,0,.29-.14.11-.24l0,.12c-.22-.09-.78,0-.67-.2-.29.15-.11.21.13.23-.54-.09-.81.12-1.36.08.09.06.19.18.11.19-.81,0-.32.28-.84.41-.33-.14,0-.44-.47-.22-.34-.07-.11-.3,0-.41-.45.3-.93,0-1.22,0l.25-.14a1.13,1.13,0,0,1-.4.12l.18.21c-.16,0-.29,0-.3-.1-.13.18.18.37-.1.63-.21-.09-.59.22-.7-.08.64,0-.12-.3.41-.43a.66.66,0,0,1-.38,0s0-.07,0-.09c-.65-.19-.23.39-.86.48.06-.19-.19-.31-.29-.26.25,0,.17.28,0,.45-.43-.08-.43.16-.64.18l.25,0c-.05.19-.26.19-.53.29,0-.13.24-.13.13-.18-.26.36-.75-.21-1.15.07-.22-.09-.07-.33-.26-.38-.45.3-.56-.16-1,.11.18.21.2.15-.13.43l.82-.29-.49.42c.25,0,.51-.23.67-.21-.23.23-.21.17-.06.34-.4-.3-.65.32-1.09.14l-.08-.59c-.64-.16-1,.47-1.83.45l.27.06c-.07.25-.48.11-.71.24,0-.2-.18-.24-.31-.35,0,.15-.57.08-.58.48l-.39-.2c-.65,0-.63.67-1.25.7.15-.24-.15-.34.23-.55-.2,0-.39,0-.37.16-.13-.11-.52.35-.73.2-.07.09-.07.3-.3.32,0,0,0-.09,0-.09s-.34.19-.1.37c-.73-.51-1.74.32-2.37-.11a13.08,13.08,0,0,1-1.35.37c0-.06,0-.1.07-.09-.58-.09-.25.61-.91.52-.37-.26.3-.23.08-.31-.19-.63-.74.21-1.22-.09l.09-.06c-.36-.16-.75.38-1.28.42a.15.15,0,0,0,0-.1,3.39,3.39,0,0,1-1.46.79c.11-.28.21-.17.07-.41-.22.07.13.4-.31.54-.17-.11-.52-.17-.61-.44l.43-.08c-.28-.32-.55.1-.79.08v-.16c-.65.16-.59.55-1.3.65l.09.1c-.32.45-.36-.16-.69.19l-.19-.37a8.35,8.35,0,0,1-1.27.69,4,4,0,0,1,1-.81c-.25,0-.85.18-1,.4.09-.06.21-.18.32-.13a1.66,1.66,0,0,1-1.14.66c0-.77-1.35,0-1.82-.48-.84.44-1.78.2-2.81.44.48.52-.3.07-.12.66-.24.09-.33.09-.36.06l-.8-.22c-.21-.15.21-.18.16-.31-.54.05-.27-.21-.65-.31.11.21-.13.35-.44.32l.47.2c-.67.46-.73-.38-1.41.08l.19-.24c-.36.19-1.41.27-1.68.83-.08-.06-.21-.21,0-.28-.92.11-1.92.91-2.69.76l0-.16c-.16.08-.24.34-.48.24,0-.07,0-.16,0-.16s-.4.36-.64.32l.15-.21c-.92,0-1.27.69-2,.95-.09-.43-.82-.42-1.18-.41v-.06a10.47,10.47,0,0,0-2.58,1.13c-.7-.33-2,.26-3.06.24.16,0,.06.34-.1.42s-.54.45-.6.05h.08c-.27-.34-.7-.13-1.06-.05l.07.52c-1.12-.5-2.37.91-3,.37-.19.19-.47.26-.65.45l-.07-.27a7.25,7.25,0,0,0-1.7.42l.1-.24c-.44.11-.33.94-.72,1.07l-.24-.37c-.75.22-1.61.09-2.25.67,0-.06,0-.19.1-.24-.36.09-1.45.14-1.15.66-.12-.36-.78.2-1.14.48l0-.28c-.23.44-.21.54-.66.78-.12,0-.17-.18,0-.16-.42,0-.22.34-.71.35l.11-.23c-.39.11-.33.19-.48.46s-.75.17-.88,0a.46.46,0,0,1-.4.43c-.06-.08,0-.16,0-.2-.7,0-.85.62-1.37.51a.23.23,0,0,0-.13-.13,4.48,4.48,0,0,1,.89-.26c-.08-.25-.51-.15-.29-.6-.27.3-.7.9-1.14.92a.25.25,0,0,1-.08-.07l0,0a.38.38,0,0,0-.24.13,1.08,1.08,0,0,0-.36,0c-.11-.18-.5.06-.71.12.11.26-.17.31.15.44,0,0,0-.05.16-.1s.07,0,.08-.06v0l.5-.2c-.12.19-.25.37-.52.3,0,.2-.1.42-.14.52-.41-.27-1-.27-1.18-.47-.57.37-1.43.65-1.63,1.3-.15.13-.25-.06-.35-.11.08-.09.21-.13.23-.23-.3.27-1,.47-1,.85-.5,0,.12-.42-.46-.1l0-.14c-1.44,0-1.51,1.71-3.11,1.7.1,0,.16,0,.21,0-1.63.48-2.75,2-4.34,2.54-.42.22-.32.43-.42.75l-.27-.17-.12.59c-.32.63-1.39.31-1.63,1.3l.23,0c-.23.22-.54.84-.69.66,0,0,.1.2-.06.24l-.13-.09-.22.78c-.43.44-.49-.44-1,.31-.12.32-.08,1,.07,1s.26-.24.4-.17l-.07.29c.37.28.7.66,1.31.27v-.54h.27l-.19.34c.3-.07.2-.29.18-.49a.43.43,0,0,0,.32,0l-.11-.62c.18.06.18.37.43.19,0-.29-.44-.07-.35-.44.3-.06.4.11.42-.21a.2.2,0,0,1,.12.25c0-.26.34-.5.22-.76.34,0,.49-.61.79-.3a1.07,1.07,0,0,1,.17-.7c.08.64.61-.52.91,0-.12-.55.65-.82.88-1.35,0,.05,0,.15,0,.15.26-.14.41-.07.61-.11-.2-.33.11-.68.18-1,.51.11.08.5.38.73-.2-.25.34-.6.09-.75.36,0,.26,0,.55.16-.22-.44.17-.21.21-.58.46,0,.32.34.62,0C80.22,180.12,80,180.46,80,180.46Zm9.29-4.92h0l-.21.09Zm.85-.3-.37.11c-.06-.08-.06-.18,0-.21S90,175.2,90.12,175.24ZM87.68,174c.12-.08.18,0,.22,0l-.23.12v0A.29.29,0,0,1,87.68,174Z" transform="translate(-20.72 -105.87)"/><path class="cls-5" d="M87.55,174.46l0,0,.11,0,0-.1Z" transform="translate(-20.72 -105.87)"/><path class="cls-5" d="M168.07,158.71h0a.05.05,0,0,1,0,0Z" transform="translate(-20.72 -105.87)"/><polygon class="cls-5" points="81.45 66.31 81.44 66.24 81.38 66.32 81.45 66.31"/><path class="cls-5" d="M173.14,159a.13.13,0,0,0,.08.06A.18.18,0,0,0,173.14,159Z" transform="translate(-20.72 -105.87)"/><path class="cls-5" d="M175.28,158.78l.32.06A1.88,1.88,0,0,0,175.28,158.78Z" transform="translate(-20.72 -105.87)"/><path class="cls-5" d="M176.94,158.71a.32.32,0,0,0,0-.13h0Z" transform="translate(-20.72 -105.87)"/><path class="cls-5" d="M151,162.7l-.06,0C150.75,162.8,150.85,162.76,151,162.7Z" transform="translate(-20.72 -105.87)"/><path class="cls-5" d="M158.59,160.9l-.23.17C158.5,161.07,158.61,161.06,158.59,160.9Z" transform="translate(-20.72 -105.87)"/><polygon class="cls-5" points="121.65 58.52 121.65 58.51 121.59 58.52 121.65 58.52"/><path class="cls-5" d="M158,161.11a.48.48,0,0,0,.36,0A.64.64,0,0,0,158,161.11Z" transform="translate(-20.72 -105.87)"/><path class="cls-5" d="M184.07,157.94h.08a.06.06,0,0,1,0,0Z" transform="translate(-20.72 -105.87)"/><path class="cls-5" d="M184.16,157.9l.08-.05S184.16,157.87,184.16,157.9Z" transform="translate(-20.72 -105.87)"/><path class="cls-5" d="M184.42,157.76l-.18.09A.17.17,0,0,0,184.42,157.76Z" transform="translate(-20.72 -105.87)"/><path class="cls-5" d="M181.88,158.08v.11A.34.34,0,0,0,181.88,158.08Z" transform="translate(-20.72 -105.87)"/><path class="cls-5" d="M181.22,158.19c.17,0,.43.17.64.08v-.08C181.78,158.35,181.35,158,181.22,158.19Z" transform="translate(-20.72 -105.87)"/><path class="cls-5" d="M178.31,157.29h.56c-.11-.1-.25-.22,0-.28C178.13,156.79,179,157.24,178.31,157.29Z" transform="translate(-20.72 -105.87)"/><path class="cls-5" d="M176.57,157.35c.29-.08,0-.15,0-.22C176.38,157.26,176.34,157.29,176.57,157.35Z" transform="translate(-20.72 -105.87)"/><path class="cls-5" d="M164.17,159v-.25C164,158.83,164.18,158.86,164.17,159Z" transform="translate(-20.72 -105.87)"/><polygon class="cls-5" points="141.27 54.8 141.52 54.92 141.59 54.67 141.27 54.8"/><polygon class="cls-5" points="139.61 53.19 139.71 53.14 139.34 53.29 139.61 53.19"/><path class="cls-5" d="M139.57,162.34l.12.3C139.84,162.56,139.82,162.21,139.57,162.34Z" transform="translate(-20.72 -105.87)"/><path class="cls-5" d="M130.68,164.16a.34.34,0,0,0-.52,0C130.36,164.13,130.58,164.21,130.68,164.16Z" transform="translate(-20.72 -105.87)"/><polygon class="cls-5" points="83.15 63.26 83.3 63.11 82.99 63.28 83.15 63.26"/></svg>